# xmcd CD database file
#
# Track frame offsets:
#	150
#	26926
#	43833
#	91762
#	118281
#	130170
#
# Disc length: 2491 seconds
#
# Revision: 0
# Processed by: cddbd v1.5PL3 Copyright (c) Steve Scherf et al.
# Submitted via: CDex 1.50
#
DISCID=5009b906
DTITLE=pinabau - 003
DYEAR=2003
DGENRE=Jazz
TTITLE0=Sto'sunnat
TTITLE1=Cosimo
TTITLE2=Neo
TTITLE3=Sieri
TTITLE4=Dulcapazio
TTITLE5=Cianfrosti
EXTD=YEAR: 2003
EXTT0=
EXTT1=
EXTT2=
EXTT3=
EXTT4=
EXTT5=
PLAYORDER=
